<svg width="24" height="24" viewBox="0 0 24 24" fill="none" xmlns="http://www.w3.org/2000/svg">
    <path d="M18 21.75H6C5.00544 21.75 4.05161 21.3549 3.34835 20.6516C2.64509 19.9484 2.25 18.9946 2.25 18V7.5C2.25 6.50544 2.64509 5.55161 3.34835 4.84835C4.05161 4.14509 5.00544 3.75 6 3.75H18C18.9946 3.75 19.9484 4.14509 20.6516 4.84835C21.3549 5.55161 21.75 6.50544 21.75 7.5V18C21.75 18.9946 21.3549 19.9484 20.6516 20.6516C19.9484 21.3549 18.9946 21.75 18 21.75ZM6 5.25C5.40326 5.25 4.83097 5.48705 4.40901 5.90901C3.98705 6.33097 3.75 6.90326 3.75 7.5V18C3.75 18.5967 3.98705 19.169 4.40901 19.591C4.83097 20.0129 5.40326 20.25 6 20.25H18C18.5967 20.25 19.169 20.0129 19.591 19.591C20.0129 19.169 20.25 18.5967 20.25 18V7.5C20.25 6.90326 20.0129 6.33097 19.591 5.90901C19.169 5.48705 18.5967 5.25 18 5.25H6Z" fill="black" />
    <path d="M18 18.75H15C14.8011 18.75 14.6103 18.671 14.4697 18.5303C14.329 18.3897 14.25 18.1989 14.25 18V15C14.25 14.8011 14.329 14.6103 14.4697 14.4697C14.6103 14.329 14.8011 14.25 15 14.25H18C18.1989 14.25 18.3897 14.329 18.5303 14.4697C18.671 14.6103 18.75 14.8011 18.75 15V18C18.75 18.1989 18.671 18.3897 18.5303 18.5303C18.3897 18.671 18.1989 18.75 18 18.75ZM15.75 17.25H17.25V15.75H15.75V17.25Z" fill="black" />
    <path d="M21 9.75H3C2.80109 9.75 2.61032 9.67098 2.46967 9.53033C2.32902 9.38968 2.25 9.19891 2.25 9C2.25 8.80109 2.32902 8.61032 2.46967 8.46967C2.61032 8.32902 2.80109 8.25 3 8.25H21C21.1989 8.25 21.3897 8.32902 21.5303 8.46967C21.671 8.61032 21.75 8.80109 21.75 9C21.75 9.19891 21.671 9.38968 21.5303 9.53033C21.3897 9.67098 21.1989 9.75 21 9.75Z" fill="black" />
    <path d="M8.25 6.75C8.05109 6.75 7.86032 6.67098 7.71967 6.53033C7.57902 6.38968 7.5 6.19891 7.5 6V3C7.5 2.80109 7.57902 2.61032 7.71967 2.46967C7.86032 2.32902 8.05109 2.25 8.25 2.25C8.44891 2.25 8.63968 2.32902 8.78033 2.46967C8.92098 2.61032 9 2.80109 9 3V6C9 6.19891 8.92098 6.38968 8.78033 6.53033C8.63968 6.67098 8.44891 6.75 8.25 6.75Z" fill="black" />
    <path d="M15.75 6.75C15.5511 6.75 15.3603 6.67098 15.2197 6.53033C15.079 6.38968 15 6.19891 15 6V3C15 2.80109 15.079 2.61032 15.2197 2.46967C15.3603 2.32902 15.5511 2.25 15.75 2.25C15.9489 2.25 16.1397 2.32902 16.2803 2.46967C16.421 2.61032 16.5 2.80109 16.5 3V6C16.5 6.19891 16.421 6.38968 16.2803 6.53033C16.1397 6.67098 15.9489 6.75 15.75 6.75Z" fill="black" />
</svg>
    