<svg width="56" height="57" viewBox="0 0 56 57" fill="none" xmlns="http://www.w3.org/2000/svg">
    <g clip-path="url(#clip0_121_77)">
        <path d="M28 17.3232C25.8368 17.3232 23.7221 17.9647 21.9235 19.1665C20.1248 20.3684 18.7229 22.0766 17.8951 24.0751C17.0672 26.0737 16.8506 28.2729 17.2727 30.3945C17.6947 32.5162 18.7364 34.4651 20.266 35.9947C21.7957 37.5244 23.7445 38.5661 25.8662 38.9881C27.9879 39.4101 30.187 39.1935 32.1856 38.3657C34.1842 37.5378 35.8924 36.136 37.0942 34.3373C38.296 32.5386 38.9375 30.424 38.9375 28.2607C38.9375 25.3599 37.7852 22.5779 35.734 20.5268C33.6828 18.4756 30.9008 17.3232 28 17.3232ZM28 36.5732C26.3559 36.5732 24.7488 36.0857 23.3818 35.1723C22.0148 34.2589 20.9494 32.9607 20.3203 31.4418C19.6911 29.9229 19.5265 28.2515 19.8472 26.6391C20.168 25.0266 20.9597 23.5454 22.1222 22.3829C23.2847 21.2204 24.7658 20.4287 26.3783 20.108C27.9908 19.7872 29.6622 19.9518 31.1811 20.581C32.7 21.2101 33.9982 22.2756 34.9116 23.6426C35.825 25.0095 36.3125 26.6167 36.3125 28.2607C36.3125 30.4654 35.4367 32.5797 33.8778 34.1386C32.3189 35.6975 30.2046 36.5732 28 36.5732Z" fill="#DAA761" />
        <path d="M52.9375 21.2607H49.0306C48.9397 21.2601 48.8512 21.231 48.7774 21.1777C48.7037 21.1244 48.6485 21.0494 48.6194 20.9632C48.3651 20.2411 48.073 19.5328 47.7444 18.8414C47.7033 18.7598 47.6889 18.6674 47.703 18.5772C47.7171 18.4869 47.7591 18.4034 47.8231 18.3382L50.5838 15.5732C50.8682 15.2889 51.0938 14.9512 51.2477 14.5797C51.4016 14.2081 51.4808 13.8098 51.4808 13.4076C51.4808 13.0054 51.4016 12.6072 51.2477 12.2356C51.0938 11.864 50.8682 11.5264 50.5838 11.242L45.0144 5.67699C44.73 5.39258 44.3924 5.16697 44.0208 5.01305C43.6492 4.85912 43.2509 4.7799 42.8488 4.7799C42.4466 4.7799 42.0483 4.85912 41.6767 5.01305C41.3051 5.16697 40.9675 5.39258 40.6831 5.67699L37.9225 8.43762C37.8573 8.50161 37.7738 8.54362 37.6836 8.55774C37.5933 8.57186 37.501 8.55739 37.4194 8.51637C36.728 8.18759 36.0197 7.89552 35.2975 7.64137C35.2113 7.61226 35.1363 7.557 35.083 7.4833C35.0297 7.40959 35.0007 7.32109 35 7.23012V3.32324C35 2.51102 34.6773 1.73206 34.103 1.15773C33.5287 0.583397 32.7497 0.260742 31.9375 0.260742H24.0625C23.2503 0.260742 22.4713 0.583397 21.897 1.15773C21.3227 1.73206 21 2.51102 21 3.32324V7.23012C20.9993 7.32109 20.9703 7.40959 20.917 7.4833C20.8637 7.557 20.7887 7.61226 20.7025 7.64137C19.9804 7.89563 19.2721 8.1877 18.5806 8.51637C18.499 8.55739 18.4067 8.57186 18.3164 8.55774C18.2262 8.54362 18.1427 8.50161 18.0775 8.43762L15.3125 5.67699C15.0281 5.39258 14.6905 5.16697 14.3189 5.01305C13.9473 4.85912 13.5491 4.7799 13.1469 4.7799C12.7447 4.7799 12.3464 4.85912 11.9748 5.01305C11.6033 5.16697 11.2656 5.39258 10.9812 5.67699L5.41625 11.2464C5.13184 11.5308 4.90623 11.8684 4.7523 12.24C4.59838 12.6115 4.51915 13.0098 4.51915 13.412C4.51915 13.8142 4.59838 14.2125 4.7523 14.584C4.90623 14.9556 5.13184 15.2932 5.41625 15.5776L8.17688 18.3382C8.24087 18.4034 8.28288 18.4869 8.297 18.5772C8.31112 18.6674 8.29665 18.7598 8.25563 18.8414C7.92685 19.5328 7.63478 20.2411 7.38063 20.9632C7.35152 21.0494 7.29626 21.1244 7.22255 21.1777C7.14884 21.231 7.06035 21.2601 6.96938 21.2607H3.0625C2.25027 21.2607 1.47132 21.5834 0.896985 22.1577C0.322655 22.7321 0 23.511 0 24.3232L0 32.1982C0 33.0105 0.322655 33.7894 0.896985 34.3638C1.47132 34.9381 2.25027 35.2607 3.0625 35.2607H6.96938C7.06035 35.2614 7.14884 35.2904 7.22255 35.3438C7.29626 35.3971 7.35152 35.472 7.38063 35.5582C7.63488 36.2804 7.92695 36.9887 8.25563 37.6801C8.29665 37.7617 8.31112 37.8541 8.297 37.9443C8.28288 38.0345 8.24087 38.1181 8.17688 38.1832L5.41625 40.9482C5.13184 41.2326 4.90623 41.5702 4.7523 41.9418C4.59838 42.3134 4.51915 42.7117 4.51915 43.1139C4.51915 43.5161 4.59838 43.9143 4.7523 44.2859C4.90623 44.6575 5.13184 44.9951 5.41625 45.2795L10.9856 50.8489C11.27 51.1333 11.6076 51.3589 11.9792 51.5128C12.3508 51.6667 12.7491 51.746 13.1512 51.746C13.5534 51.746 13.9517 51.6667 14.3233 51.5128C14.6949 51.3589 15.0325 51.1333 15.3169 50.8489L18.0775 48.0882C18.1427 48.0242 18.2262 47.9822 18.3164 47.9681C18.4067 47.954 18.499 47.9685 18.5806 48.0095C19.272 48.3383 19.9803 48.6303 20.7025 48.8845C20.7887 48.9136 20.8637 48.9689 20.917 49.0426C20.9703 49.1163 20.9993 49.2048 21 49.2957V53.1982C21 54.0105 21.3227 54.7894 21.897 55.3638C22.4713 55.9381 23.2503 56.2607 24.0625 56.2607H31.9375C32.7497 56.2607 33.5287 55.9381 34.103 55.3638C34.6773 54.7894 35 54.0105 35 53.1982V49.2914C35.0007 49.2004 35.0297 49.1119 35.083 49.0382C35.1363 48.9645 35.2113 48.9092 35.2975 48.8801C36.0196 48.6259 36.7279 48.3338 37.4194 48.0051C37.501 47.9641 37.5933 47.9496 37.6836 47.9637C37.7738 47.9779 37.8573 48.0199 37.9225 48.0839L40.6875 50.8445C40.9719 51.1289 41.3095 51.3545 41.6811 51.5084C42.0527 51.6624 42.4509 51.7416 42.8531 51.7416C43.2553 51.7416 43.6536 51.6624 44.0252 51.5084C44.3967 51.3545 44.7344 51.1289 45.0187 50.8445L50.5881 45.2751C50.8725 44.9907 51.0981 44.6531 51.2521 44.2815C51.406 43.91 51.4852 43.5117 51.4852 43.1095C51.4852 42.7073 51.406 42.309 51.2521 41.9375C51.0981 41.5659 50.8725 41.2282 50.5881 40.9439L47.8275 38.1832C47.7635 38.1181 47.7215 38.0345 47.7074 37.9443C47.6933 37.8541 47.7077 37.7617 47.7487 37.6801C48.0775 36.9887 48.3696 36.2804 48.6237 35.5582C48.6529 35.472 48.7081 35.3971 48.7818 35.3438C48.8555 35.2904 48.944 35.2614 49.035 35.2607H52.9375C53.7497 35.2607 54.5287 34.9381 55.103 34.3638C55.6773 33.7894 56 33.0105 56 32.1982V24.3232C56 23.511 55.6773 22.7321 55.103 22.1577C54.5287 21.5834 53.7497 21.2607 52.9375 21.2607ZM53.375 32.1982C53.375 32.3143 53.3289 32.4256 53.2469 32.5076C53.1648 32.5896 53.0535 32.6357 52.9375 32.6357H49.0306C48.3961 32.6365 47.7774 32.8343 47.2601 33.2018C46.7428 33.5694 46.3525 34.0886 46.1431 34.6876C45.9193 35.3219 45.6623 35.944 45.3731 36.5514C45.0959 37.1239 45.0038 37.7685 45.1097 38.3957C45.2155 39.0229 45.514 39.6016 45.9637 40.0514L48.7244 42.812C48.8059 42.894 48.8516 43.0048 48.8516 43.1204C48.8516 43.236 48.8059 43.3469 48.7244 43.4289L43.1594 48.9895C43.0774 49.071 42.9665 49.1167 42.8509 49.1167C42.7354 49.1167 42.6245 49.071 42.5425 48.9895L39.7819 46.2289C39.3321 45.7791 38.7534 45.4806 38.1262 45.3748C37.499 45.269 36.8544 45.361 36.2819 45.6382C35.6731 45.9275 35.0495 46.1845 34.4137 46.4082C33.8155 46.6184 33.2973 47.009 32.9306 47.5262C32.5638 48.0434 32.3666 48.6617 32.3663 49.2957V53.1982C32.3663 53.3143 32.3202 53.4256 32.2381 53.5076C32.1561 53.5896 32.0448 53.6357 31.9288 53.6357H24.0625C23.9465 53.6357 23.8352 53.5896 23.7531 53.5076C23.6711 53.4256 23.625 53.3143 23.625 53.1982V49.2914C23.6243 48.6568 23.4265 48.0381 23.0589 47.5209C22.6913 47.0036 22.1721 46.6133 21.5731 46.4039C20.9388 46.18 20.3167 45.923 19.7094 45.6339C19.1369 45.3567 18.4923 45.2646 17.8651 45.3704C17.2379 45.4763 16.6592 45.7748 16.2094 46.2245L13.4487 48.9851C13.3668 49.0666 13.2559 49.1123 13.1403 49.1123C13.0247 49.1123 12.9138 49.0666 12.8319 48.9851L7.27125 43.4201C7.18977 43.3381 7.14403 43.2273 7.14403 43.1117C7.14403 42.9961 7.18977 42.8852 7.27125 42.8032L10.0319 40.0426C10.4816 39.5928 10.7801 39.0141 10.886 38.3869C10.9918 37.7597 10.8997 37.1151 10.6225 36.5426C10.3332 35.9339 10.0762 35.3103 9.8525 34.6745C9.64115 34.0786 9.25057 33.5628 8.73436 33.1978C8.21815 32.8327 7.60161 32.6364 6.96938 32.6357H3.0625C2.94647 32.6357 2.83519 32.5896 2.75314 32.5076C2.67109 32.4256 2.625 32.3143 2.625 32.1982V24.3232C2.625 24.2072 2.67109 24.0959 2.75314 24.0139C2.83519 23.9318 2.94647 23.8857 3.0625 23.8857H6.96938C7.60394 23.885 8.22262 23.6872 8.73989 23.3196C9.25716 22.9521 9.64747 22.4329 9.85688 21.8339C10.0807 21.1996 10.3377 20.5775 10.6269 19.9701C10.9041 19.3976 10.9962 18.753 10.8903 18.1258C10.7845 17.4986 10.486 16.9199 10.0363 16.4701L7.27562 13.7095C7.19414 13.6275 7.1484 13.5166 7.1484 13.4011C7.1484 13.2855 7.19414 13.1746 7.27562 13.0926L12.8406 7.53199C12.9226 7.45051 13.0335 7.40477 13.1491 7.40477C13.2646 7.40477 13.3755 7.45051 13.4575 7.53199L16.2181 10.2926C16.6679 10.7423 17.2466 11.0409 17.8738 11.1467C18.501 11.2525 19.1456 11.1605 19.7181 10.8832C20.3269 10.594 20.9505 10.3369 21.5863 10.1132C22.1821 9.9019 22.698 9.51131 23.063 8.9951C23.428 8.47889 23.6243 7.86235 23.625 7.23012V3.32324C23.625 3.20721 23.6711 3.09593 23.7531 3.01388C23.8352 2.93184 23.9465 2.88574 24.0625 2.88574H31.9375C32.0535 2.88574 32.1648 2.93184 32.2469 3.01388C32.3289 3.09593 32.375 3.20721 32.375 3.32324V7.23012C32.3757 7.86469 32.5735 8.48336 32.9411 9.00063C33.3087 9.5179 33.8279 9.90821 34.4269 10.1176C35.0612 10.3415 35.6833 10.5985 36.2906 10.8876C36.8631 11.1648 37.5077 11.2569 38.1349 11.1511C38.7621 11.0452 39.3408 10.7467 39.7906 10.297L42.5513 7.53637C42.6332 7.45488 42.7441 7.40914 42.8597 7.40915C42.9753 7.40914 43.0862 7.45488 43.1681 7.53637L48.7375 13.1057C48.819 13.1877 48.8647 13.2986 48.8647 13.4142C48.8647 13.5298 48.819 13.6406 48.7375 13.7226L45.9769 16.4832C45.5271 16.9331 45.2286 17.5117 45.1228 18.139C45.017 18.7662 45.109 19.4108 45.3862 19.9832C45.6755 20.592 45.9326 21.2156 46.1562 21.8514C46.3664 22.4496 46.757 22.9678 47.2742 23.3345C47.7914 23.7013 48.4097 23.8985 49.0438 23.8989H52.9375C53.0535 23.8989 53.1648 23.945 53.2469 24.027C53.3289 24.1091 53.375 24.2203 53.375 24.3364V32.1982Z" fill="#DAA761" />
    </g>
    <defs>
        <clipPath id="clip0_121_77">
            <rect width="56" height="56" fill="white" transform="translate(0 0.260742)" />
        </clipPath>
    </defs>
</svg>
    