<svg width="14" height="14" viewBox="0 0 14 14" fill="none" xmlns="http://www.w3.org/2000/svg">
    <path d="M4.66602 10.9999C3.92935 10.9999 3.33935 11.5966 3.33935 12.3333C3.33935 13.0699 3.92935 13.6666 4.66602 13.6666C5.40268 13.6666 5.99935 13.0699 5.99935 12.3333C5.99935 11.5966 5.40268 10.9999 4.66602 10.9999ZM0.666016 0.333252V1.66659H1.99935L4.39602 6.72325L3.49602 8.35659C3.39268 8.54992 3.33268 8.76659 3.33268 8.99992C3.33268 9.73659 3.92935 10.3333 4.66602 10.3333H12.666V8.99992H4.94935C4.85602 8.99992 4.78268 8.92659 4.78268 8.83325C4.78268 8.80325 4.78935 8.77659 4.80268 8.75325L5.39935 7.66659H10.366C10.866 7.66659 11.3027 7.38992 11.5327 6.97992L13.916 2.65325C13.9693 2.55992 13.9993 2.44992 13.9993 2.33325C13.9993 1.96325 13.6993 1.66659 13.3327 1.66659H3.47602L2.84268 0.333252H0.666016ZM11.3327 10.9999C10.596 10.9999 10.006 11.5966 10.006 12.3333C10.006 13.0699 10.596 13.6666 11.3327 13.6666C12.0693 13.6666 12.666 13.0699 12.666 12.3333C12.666 11.5966 12.0693 10.9999 11.3327 10.9999Z" fill="black" />
</svg>
    