<svg width="16" height="16" viewBox="0 0 16 16" fill="none" xmlns="http://www.w3.org/2000/svg">
    <path d="M2.8393 11.0624C2.09384 9.80573 1.83277 8.32015 2.10512 6.88462C2.37747 5.44909 3.1645 4.16236 4.31843 3.26605C5.47235 2.36973 6.91379 1.9255 8.37208 2.01675C9.83036 2.10801 11.2052 2.72848 12.2384 3.76166C13.2715 4.79483 13.892 6.16964 13.9833 7.62793C14.0745 9.08621 13.6303 10.5277 12.734 11.6816C11.8377 12.8355 10.551 13.6225 9.11543 13.8949C7.67991 14.1673 6.19433 13.9062 4.93766 13.1607L4.93767 13.1607L2.86539 13.7528C2.77965 13.7773 2.68892 13.7784 2.6026 13.756C2.51629 13.7337 2.43752 13.6886 2.37447 13.6256C2.31142 13.5625 2.26637 13.4837 2.24401 13.3974C2.22164 13.3111 2.22276 13.2204 2.24726 13.1346L2.83934 11.0624L2.8393 11.0624Z" stroke="#0B4A78" stroke-linecap="round" stroke-linejoin="round" />
    <path d="M6 7H10" stroke="#0B4A78" stroke-linecap="round" stroke-linejoin="round" />
    <path d="M6 9H10" stroke="#0B4A78" stroke-linecap="round" stroke-linejoin="round" />
</svg>