<svg width="16" height="12" viewBox="0 0 16 12" fill="none" xmlns="http://www.w3.org/2000/svg">
    <path d="M16 3.09375V2.25C16 1.2835 15.2165 0.5 14.25 0.5H1.75C0.7835 0.5 0 1.2835 0 2.25V3.09375C0 3.18003 0.0699688 3.25 0.15625 3.25H15.8438C15.93 3.25 16 3.18003 16 3.09375Z" fill="black" />
    <path d="M0 4.40625V9.75C0 10.7165 0.7835 11.5 1.75 11.5H14.25C15.2165 11.5 16 10.7165 16 9.75V4.40625C16 4.31997 15.93 4.25 15.8438 4.25H0.15625C0.0699688 4.25 0 4.31997 0 4.40625ZM4 8.5C4 8.77612 3.77612 9 3.5 9H3C2.72388 9 2.5 8.77612 2.5 8.5V8C2.5 7.72388 2.72388 7.5 3 7.5H3.5C3.77612 7.5 4 7.72388 4 8V8.5Z" fill="black" />
</svg>
    