<svg width="24" height="24" viewBox="0 0 24 24" fill="none" xmlns="http://www.w3.org/2000/svg">
    <path d="M8.73433 11.5156C8.15618 10.0735 8.09367 8.47605 8.55738 6.9932C9.02108 5.51034 9.98256 4.23307 11.2793 3.37727C12.576 2.52148 14.1285 2.13967 15.6742 2.29636C17.22 2.45306 18.6642 3.13865 19.7628 4.23726C20.8614 5.33588 21.547 6.78012 21.7037 8.32586C21.8604 9.87161 21.4786 11.4241 20.6228 12.7208C19.767 14.0175 18.4897 14.979 17.0069 15.4427C15.524 15.9064 13.9265 15.8439 12.4844 15.2657L12.4845 15.2656L11.25 16.5001H9V18.7501H6.75V21.0001H3V17.2501L8.7345 11.5156L8.73433 11.5156Z" stroke="white" stroke-width="2" stroke-linecap="round" stroke-linejoin="round" />
    <path opacity="0.5" d="M16.875 7.5C17.0821 7.5 17.25 7.33211 17.25 7.125C17.25 6.91789 17.0821 6.75 16.875 6.75C16.6679 6.75 16.5 6.91789 16.5 7.125C16.5 7.33211 16.6679 7.5 16.875 7.5Z" stroke="white" stroke-width="2" stroke-linecap="round" stroke-linejoin="round" />
    <path d="M16.875 8.25C17.4963 8.25 18 7.74632 18 7.125C18 6.50368 17.4963 6 16.875 6C16.2537 6 15.75 6.50368 15.75 7.125C15.75 7.74632 16.2537 8.25 16.875 8.25Z" fill="white" />
</svg>
    