<svg width="16" height="12" viewBox="0 0 16 12" fill="none" xmlns="http://www.w3.org/2000/svg">
    <path d="M15.9252 5.09332L14.1869 1.37369C13.8505 0.719489 13.1963 0.326965 12.486 0.326965H3.53271C2.80374 0.326965 2.14953 0.719489 1.83178 1.39239L0.0747664 5.11201C0.0373832 5.18678 0 5.26154 0 5.355V9.8036C0 10.8316 0.841122 11.6728 1.86916 11.6728H14.1308C15.1589 11.6728 16 10.8316 16 9.8036V5.33631C16 5.24285 15.9813 5.16809 15.9252 5.09332ZM11.1963 4.75687V4.79425C10.9346 4.79425 10.7103 4.96248 10.6542 5.22416C10.6355 5.31762 10.1869 7.42977 8 7.42977C5.83178 7.42977 5.36449 5.29893 5.34579 5.22416C5.30841 4.96248 5.06542 4.79425 4.80374 4.79425H1.40187L2.78505 1.85968C2.91589 1.5793 3.19626 1.39239 3.51402 1.39239H12.4673C12.7664 1.39239 13.0654 1.56061 13.1963 1.82229L14.5794 4.75687H11.1963V4.75687Z" fill="black" />
</svg>
    