<svg width="16" height="16" viewBox="0 0 16 16" fill="none" xmlns="http://www.w3.org/2000/svg">
    <path d="M7.99987 8.3084C10.2856 8.3084 12.1541 6.43993 12.1541 4.1542C12.1541 1.86847 10.2856 0 7.99987 0C5.71414 0 3.8457 1.86847 3.8457 4.1542C3.8457 6.43993 5.71418 8.3084 7.99987 8.3084Z" fill="black" />
    <path d="M15.1292 11.6283C15.0204 11.3561 14.8753 11.1022 14.712 10.8663C13.8775 9.63277 12.5896 8.81645 11.1383 8.61691C10.9569 8.59878 10.7574 8.63503 10.6122 8.74388C9.85033 9.30624 8.94332 9.59649 7.99998 9.59649C7.05665 9.59649 6.14964 9.30624 5.38773 8.74388C5.24259 8.63503 5.04304 8.58062 4.86165 8.61691C3.4104 8.81645 2.10429 9.63277 1.28797 10.8663C1.12471 11.1022 0.979567 11.3743 0.870747 11.6283C0.816338 11.7371 0.834463 11.8641 0.888872 11.9729C1.03401 12.2269 1.2154 12.4809 1.37866 12.6986C1.63262 13.0432 1.90474 13.3516 2.21314 13.6419C2.4671 13.8958 2.75734 14.1316 3.04762 14.3675C4.48071 15.4378 6.20408 16.0001 7.98186 16.0001C9.75964 16.0001 11.483 15.4378 12.9161 14.3675C13.2063 14.1498 13.4966 13.8958 13.7506 13.6419C14.0408 13.3516 14.3311 13.0432 14.5851 12.6986C14.7664 12.4627 14.9297 12.2269 15.0748 11.9729C15.1655 11.8641 15.1836 11.7371 15.1292 11.6283Z" fill="black" />
</svg>
    